<?xml version="1.0" standalone="no"?><!DOCTYPE svg PUBLIC "-//W3C//DTD SVG 1.1//EN" "http://www.w3.org/Graphics/SVG/1.1/DTD/svg11.dtd"><svg t="1566381717496" class="icon" viewBox="0 0 1809 1024" version="1.1" xmlns="http://www.w3.org/2000/svg" p-id="9848" xmlns:xlink="http://www.w3.org/1999/xlink" width="353.3203125" height="200"><defs><style type="text/css"></style></defs><path d="M743.194 482.186c0.159 0.159 0.318 0.477 0.636 0.636l90.909 91.068 31.786-31.786-49.746-49.746 79.307-79.307 10.49 1.113c2.702 0.318 5.404 0.477 8.106 0.477 5.404 0 10.807-0.636 16.052-1.907l-58.487-58.328c-1.113-1.271-2.384-2.225-3.655-3.497 18.118-64.685 1.589-137-49.269-187.858-50.54-50.54-122.060-67.069-186.427-49.746l109.027 109.186-28.608 106.802-106.961 28.608-109.027-109.027c-17.324 64.368-0.795 136.046 49.746 186.586 52.924 52.924 129.371 68.5 196.122 46.726zM1065.509 547.507c-1.748 7.788-2.225 15.893-1.43 24.158l1.271 10.49-63.891 63.891-15.575 15.416-49.746-49.587-31.628 31.628 287.826 287.985c17.8 17.8 41.005 26.542 64.368 26.542 23.204 0 46.408-8.741 64.209-26.542 35.442-35.442 35.442-93.134 0-128.576l-255.404-255.404zM1287.696 901.608l-45.614 12.238-37.031-37.031 12.238-45.614 45.614-12.238 37.031 37.031-12.238 45.614zM936.456 581.2l49.746 49.746 56.421-56.421c-3.020-27.654 6.039-56.103 27.018-77.241 21.138-21.138 49.746-30.038 77.241-27.018l246.822-246.822-138.271-138.112-246.663 246.663c3.020 27.495-5.88 56.103-27.018 77.241s-49.746 30.038-77.241 27.018l-56.421 56.421 49.746 49.746-243.802 243.802-8.9-8.9-46.885 37.667-78.671 124.285 20.025 20.184 124.285-78.671 37.826-46.885-9.059-8.9 243.802-243.802z" p-id="9849"></path></svg>