<?xml version="1.0" standalone="no"?><!DOCTYPE svg PUBLIC "-//W3C//DTD SVG 1.1//EN" "http://www.w3.org/Graphics/SVG/1.1/DTD/svg11.dtd"><svg t="1566546602777" class="icon" viewBox="0 0 1024 1024" version="1.1" xmlns="http://www.w3.org/2000/svg" p-id="5471" xmlns:xlink="http://www.w3.org/1999/xlink" width="200" height="200"><defs><style type="text/css"></style></defs><path d="M512 341.333333c-23.466667 0-42.666667 19.2-42.666667 42.666667l21.333333 234.666667c0 12.8 8.533333 21.333333 21.333333 21.333333s21.333333-8.533333 21.333333-21.333333l21.333333-234.666667C554.666667 360.533333 535.466667 341.333333 512 341.333333zM512 682.666667c-23.466667 0-42.666667 19.2-42.666667 42.666667s19.2 42.666667 42.666667 42.666667 42.666667-19.2 42.666667-42.666667S535.466667 682.666667 512 682.666667zM970.666667 768l-384-597.333333c0 0-19.2-42.666667-74.666667-42.666667-51.2 0-74.666667 42.666667-74.666667 42.666667l-384 597.333333c0 0-10.666667 14.933333-10.666667 42.666667 0 46.933333 38.4 85.333333 85.333333 85.333333l768 0c46.933333 0 85.333333-38.4 85.333333-85.333333C981.333333 780.8 970.666667 768 970.666667 768zM896 853.333333 128 853.333333c-23.466667 0-42.666667-19.2-42.666667-42.666667 0-8.533333 2.133333-14.933333 2.133333-17.066667 0 0 0 0 2.133333-2.133333l384-597.333333c0 0 2.133333-2.133333 2.133333-2.133333 0 0 12.8-21.333333 36.266667-21.333333 25.6 0 34.133333 17.066667 36.266667 19.2 0 2.133333 2.133333 2.133333 2.133333 6.4l384 597.333333c0 0 2.133333 2.133333 2.133333 2.133333 0 2.133333 2.133333 6.4 2.133333 17.066667C938.666667 834.133333 919.466667 853.333333 896 853.333333z" p-id="5472"></path></svg>