<?xml version="1.0" standalone="no"?><!DOCTYPE svg PUBLIC "-//W3C//DTD SVG 1.1//EN" "http://www.w3.org/Graphics/SVG/1.1/DTD/svg11.dtd"><svg t="1566744247061" class="icon" viewBox="0 0 1024 1024" version="1.1" xmlns="http://www.w3.org/2000/svg" p-id="2178" xmlns:xlink="http://www.w3.org/1999/xlink" width="200" height="200"><defs><style type="text/css"></style></defs><path d="M955.809101 488.133185c-17.615982 0-31.82242 14.206437-31.82242 31.82242v339.931631c0 55.120977-44.77869 99.899667-99.899667 99.899667H166.954051c-55.120977 0-99.899667-44.77869-99.899667-99.899667V202.754273c0-55.120977 44.77869-99.899667 99.899667-99.899667h339.704329c17.615982 0 31.82242-14.206437 31.822419-31.82242s-14.206437-31.82242-31.822419-31.822419H166.954051C76.828413 39.209767 3.409545 112.514983 3.409545 202.754273v657.132963c0 90.125638 73.305216 163.544506 163.544506 163.544507h657.132963c90.125638 0 163.544506-73.305216 163.544507-163.544507V519.955605c-0.113651-17.615982-14.320089-31.82242-31.82242-31.82242z" fill="#EF5350" p-id="2179"></path><path d="M758.964706 93.648835L341.977358 514.613984h-0.113651s0 0.113651-0.113652 0.113652l-31.708768 32.049722c-5.000666 5.000666-8.182908 11.478801-8.978468 18.525195L283.560488 707.70788c-1.250166 9.774029 2.159378 19.548058 9.205772 26.480799 6.023529 5.909878 14.092786 9.205771 22.389345 9.205772 1.363818 0 2.841287-0.113651 4.205105-0.227303l142.291676-18.866149c6.932741-0.909212 13.524528-4.205105 18.411543-9.205771l30.913208-31.140511s0.113651 0 0.113651-0.113652c0 0 0-0.113651 0.113652-0.113651L927.964484 262.989567s0.113651-0.113651 0.227303-0.113651c0 0 0.113651-0.113651 0.113651-0.227303l57.62131-58.189567c22.502997-22.7303 34.777358-52.847947 34.663707-84.784018-0.113651-31.936071-12.728968-61.940067-35.459267-84.443064C962.400888 12.728968 932.96515 1.022863 900.34717 0.568257c-31.936071 0.113651-61.940067 12.728968-84.443063 35.459268l-56.939401 57.62131z m-270.490566 522.68324l-79.215094-79.215094 372.208657-375.845505 79.215094 79.215094-372.208657 375.845505z m-136.609101 58.416871l11.137847-90.807548 1.591121-1.591121 79.215094 79.215095-1.136515 1.136515-90.807547 12.047059zM900.688124 64.213097c15.456604 0.681909 29.094784 5.682575 39.664373 16.252164 10.683241 10.569589 16.479467 24.548724 16.593119 39.550721 0.113651 15.001998-5.682575 29.094784-16.252164 39.664373l-35.231965 35.572919-79.215094-79.215094 34.89101-35.231965c10.569589-10.569589 24.548724-16.479467 39.550721-16.593118zM779.990233 712.822198c17.615982 0 31.82242-14.206437 31.82242-31.82242s-14.206437-31.82242-31.82242-31.82242H607.126304c-17.615982 0-31.82242 14.206437-31.822419 31.82242s14.206437 31.82242 31.822419 31.82242h172.863929zM173.659489 843.066815c0 17.615982 14.206437 31.82242 31.82242 31.822419h579.963596c17.615982 0 31.82242-14.206437 31.82242-31.822419s-14.206437-31.82242-31.82242-31.82242H205.481909c-17.615982 0-31.82242 14.206437-31.82242 31.82242z" fill="#EF5350" p-id="2180"></path></svg>