<?xml version="1.0" standalone="no"?><!DOCTYPE svg PUBLIC "-//W3C//DTD SVG 1.1//EN" "http://www.w3.org/Graphics/SVG/1.1/DTD/svg11.dtd"><svg t="1583573396362" class="icon" viewBox="0 0 1024 1024" version="1.1" xmlns="http://www.w3.org/2000/svg" p-id="2095" xmlns:xlink="http://www.w3.org/1999/xlink" width="200" height="200"><defs><style type="text/css"></style></defs><path d="M512 81.92C274.432 81.92 81.92 274.432 81.92 512s192.512 430.08 430.08 430.08 430.08-192.512 430.08-430.08S749.568 81.92 512 81.92z m180.224 557.056c17.408 17.408 17.408 38.912 2.048 54.272-15.36 16.384-36.864 15.36-54.272-2.048-43.008-41.984-84.992-83.968-126.976-126.976L386.048 691.2c-17.408 17.408-38.912 17.408-54.272 2.048-16.384-15.36-15.36-36.864 2.048-54.272 41.984-43.008 83.968-84.992 126.976-126.976L333.824 385.024c-17.408-17.408-17.408-38.912-2.048-54.272 15.36-16.384 36.864-15.36 54.272 2.048 43.008 41.984 84.992 83.968 126.976 126.976l126.976-126.976c17.408-17.408 38.912-17.408 54.272-2.048 16.384 15.36 15.36 36.864-2.048 54.272-41.984 43.008-83.968 84.992-126.976 126.976 43.008 41.984 84.992 84.992 126.976 126.976z" fill="#CE4545" p-id="2096"></path></svg>