<?xml version="1.0" standalone="no"?><!DOCTYPE svg PUBLIC "-//W3C//DTD SVG 1.1//EN" "http://www.w3.org/Graphics/SVG/1.1/DTD/svg11.dtd"><svg t="1566380023928" class="icon" viewBox="0 0 1024 1024" version="1.1" xmlns="http://www.w3.org/2000/svg" p-id="1311" xmlns:xlink="http://www.w3.org/1999/xlink" width="200" height="200"><defs><style type="text/css"></style></defs><path d="M 768 554.667 v 213.333 H 256 v -213.333 H 213.333 v 213.333 c 0 25.6 21.3333 42.6667 42.6667 42.6667 h 512 c 25.6 0 42.6667 -21.3333 42.6667 -42.6667 v -213.333 h -42.6667 Z" p-id="1312"></path><path d="M 494.933 196.267 c 4.26667 -4.26667 8.53333 -4.26667 17.0667 -4.26667 s 12.8 0 17.0667 4.26667 l 119.467 119.467 c 8.53333 8.53333 8.53333 21.3333 0 29.8667 c -8.53333 8.53333 -21.3333 8.53333 -29.8667 0 l -85.3333 -85.3333 v 409.6 c 0 12.8 -8.53333 21.3333 -21.3333 21.3333 s -21.3333 -8.53333 -21.3333 -21.3333 V 264.533 l -85.3333 85.3333 c -8.53333 8.53333 -21.3333 8.53333 -29.8667 0 s -8.53333 -21.3333 0 -29.8667 l 119.467 -123.733 Z" p-id="1313"></path></svg>