<?xml version="1.0" standalone="no"?><!DOCTYPE svg PUBLIC "-//W3C//DTD SVG 1.1//EN" "http://www.w3.org/Graphics/SVG/1.1/DTD/svg11.dtd"><svg t="1566380088979" class="icon" viewBox="0 0 1024 1024" version="1.1" xmlns="http://www.w3.org/2000/svg" p-id="3687" xmlns:xlink="http://www.w3.org/1999/xlink" width="200" height="200"><defs><style type="text/css"></style></defs><path d="M917.76 424.96l-288-312.64a159.808 159.808 0 0 0-235.2 0l-288 312.64A159.68 159.68 0 0 0 64 533.44V864c0 53.12 42.88 96 96 96h704c53.12 0 96-42.88 96-96V533.44c0-40-15.04-78.72-42.24-108.48zM608 896h-192v-288h192v288z m288-32c0 17.6-14.4 32-32 32h-192v-288a64 64 0 0 0-64-64h-192c-35.2 0-64 28.8-64 64v288H160c-17.6 0-32-14.4-32-32V533.44c0-24 8.96-47.36 25.28-64.96l288-312.64a95.872 95.872 0 0 1 141.12 0l288 312.64c16.32 17.6 25.28 40.96 25.28 64.96V864z" p-id="3688"></path></svg>