<?xml version="1.0" standalone="no"?><!DOCTYPE svg PUBLIC "-//W3C//DTD SVG 1.1//EN" "http://www.w3.org/Graphics/SVG/1.1/DTD/svg11.dtd"><svg t="1566744218906" class="icon" viewBox="0 0 1024 1024" version="1.1" xmlns="http://www.w3.org/2000/svg" p-id="1650" xmlns:xlink="http://www.w3.org/1999/xlink" width="200" height="200"><defs><style type="text/css"></style></defs><path d="M554.666667 384l-42.666667 85.333333H85.333333V298.666667a85.333333 85.333333 0 0 1 85.333334-85.333334h213.333333z" p-id="1651"></path><path d="M853.333333 341.333333H170.666667a85.333333 85.333333 0 0 0-85.333334 85.333334v384a85.333333 85.333333 0 0 0 85.333334 85.333333h682.666666a85.333333 85.333333 0 0 0 85.333334-85.333333v-384a85.333333 85.333333 0 0 0-85.333334-85.333334z m-193.706666 469.333334C640 747.946667 580.266667 673.28 512 673.28v26.88a26.88 26.88 0 0 1-14.506667 23.893333 27.306667 27.306667 0 0 1-11.52 2.986667 26.026667 26.026667 0 0 1-15.786666-5.12L365.226667 640a28.16 28.16 0 0 1-10.24-21.76 27.306667 27.306667 0 0 1 10.24-21.333333L469.333333 517.12a25.173333 25.173333 0 0 1 15.786667-5.12 23.04 23.04 0 0 1 11.52 2.986667 26.026667 26.026667 0 0 1 14.506667 23.893333v26.88c85.333333 0 157.013333 95.573333 157.013333 191.146667a160 160 0 0 1-8.533333 53.76z" p-id="1652"></path></svg>