<?xml version="1.0" standalone="no"?><!DOCTYPE svg PUBLIC "-//W3C//DTD SVG 1.1//EN" "http://www.w3.org/Graphics/SVG/1.1/DTD/svg11.dtd"><svg t="1566561390960" class="icon" viewBox="0 0 1146 1024" version="1.1" xmlns="http://www.w3.org/2000/svg" p-id="3019" xmlns:xlink="http://www.w3.org/1999/xlink" width="223.828125" height="200"><defs><style type="text/css"></style></defs><path d="M117.160727 904.901818V448l289.969455-286.065455a1.454545 1.454545 0 0 1 1.021091-0.418909h83.121454c42.653091 0 64.200727-28.804364 64.200728-58.999272 0-30.196364-24.315636-61.061818-64.200728-61.061819h-143.397818a1.454545 1.454545 0 0 0-1.028364 0.426182L0.363636 388.363636v633.454546a1.454545 1.454545 0 0 0 1.454546 1.454545h1142.545454a1.454545 1.454545 0 0 0 1.454546-1.454545V54.904727c0-20.96-22.772364-52.101818-52.535273-52.101818-29.764364 0-60.272 27.627636-60.272 52.101818v849.995637a1.454545 1.454545 0 0 1-1.454545 1.454545H118.615273a1.454545 1.454545 0 0 1-1.454546-1.454545z" fill="#000000" p-id="3020"></path><path d="M941.272727 353.056h-101.061818V65.541818c0-35.895273-29.098182-64.994909-64.994909-64.994909-35.895273 0-64.994909 29.099636-64.994909 64.994909v287.515637h-96.221091l163.636364 220.216727 163.636363-220.216727z" fill="#000000" p-id="3021"></path></svg>