<?xml version="1.0" standalone="no"?><!DOCTYPE svg PUBLIC "-//W3C//DTD SVG 1.1//EN" "http://www.w3.org/Graphics/SVG/1.1/DTD/svg11.dtd"><svg t="1566379627247" class="icon" viewBox="0 0 1024 1024" version="1.1" xmlns="http://www.w3.org/2000/svg" p-id="3332" xmlns:xlink="http://www.w3.org/1999/xlink" width="200" height="200"><defs><style type="text/css"></style></defs><path d="M698.56 114.88c80 110.72 127.36 246.72 127.36 393.92s-47.36 283.2-127.36 393.92a31.52 31.52 0 0 0 7.04 44.48c14.4 10.56 34.24 7.36 44.8-7.04a734.08 734.08 0 0 0 139.52-431.36c0-161.28-51.84-310.4-139.52-431.68-10.56-14.08-30.4-17.28-44.8-7.04-14.4 10.24-17.6 30.4-7.04 44.8zM601.92 508.8c0-104.64-33.28-201.28-89.92-280a31.808 31.808 0 0 1 7.36-44.48 31.744 31.744 0 0 1 44.48 7.04c64.32 89.28 102.08 199.04 102.08 317.44 0 118.08-37.76 227.84-102.08 317.12-10.24 14.4-30.08 17.6-44.48 7.36-14.4-10.24-17.6-30.4-7.36-44.8 56.64-78.72 89.92-175.36 89.92-279.68zM325.76 343.36a285.6 285.6 0 0 1 52.16 165.44c0 61.44-19.2 118.4-52.16 165.12a32 32 0 0 0 8 44.8c14.4 9.92 34.24 6.72 44.48-8 40-56.96 63.68-126.72 63.68-201.92s-23.68-144.96-63.68-202.24a31.872 31.872 0 0 0-44.48-7.68c-14.72 9.92-18.24 30.08-8 44.48zM134.4 435.2c16.32 21.76 25.6 48.32 25.6 76.8s-9.28 55.04-25.6 76.8c-10.56 14.4-7.68 34.24 6.4 44.8 14.4 10.56 34.24 7.68 44.8-6.4C209.6 594.56 224 554.88 224 512s-14.4-82.56-38.4-115.2c-10.56-14.08-30.4-16.96-44.8-6.4-14.08 10.56-16.96 30.4-6.4 44.8z" p-id="3333"></path></svg>