<?xml version="1.0" standalone="no"?><!DOCTYPE svg PUBLIC "-//W3C//DTD SVG 1.1//EN" "http://www.w3.org/Graphics/SVG/1.1/DTD/svg11.dtd"><svg t="1566381245434" class="icon" viewBox="0 0 1024 1024" version="1.1" xmlns="http://www.w3.org/2000/svg" p-id="1278" xmlns:xlink="http://www.w3.org/1999/xlink" width="200" height="200"><defs><style type="text/css"></style></defs><path d="M981.333333 398.222222a639.146667 639.146667 0 0 0-933.973333 2.417778 62.435556 62.435556 0 0 0 46.791111 104.248889 60.16 60.16 0 0 0 44.515556-19.2 517.546667 517.546667 0 0 1 377.457777-164.835556 511.004444 511.004444 0 0 1 374.328889 161.564445 64 64 0 0 0 46.222223 20.053333 61.297778 61.297778 0 0 0 43.662222-18.062222A62.435556 62.435556 0 0 0 981.333333 398.222222z" p-id="1279"></path><path d="M516.124444 376.604444a460.942222 460.942222 0 0 0-341.333333 151.751112A62.293333 62.293333 0 0 0 267.804444 611.555556a334.933333 334.933333 0 0 1 495.36-1.28 62.293333 62.293333 0 0 0 92.444445-84.053334 461.226667 461.226667 0 0 0-339.484445-149.617778z" p-id="1280"></path><path d="M516.124444 561.351111a274.631111 274.631111 0 0 0-210.773333 98.702222 62.293333 62.293333 0 0 0 4.266667 83.911111 60.728889 60.728889 0 0 0 42.666666 17.777778 64.568889 64.568889 0 0 0 48.924445-22.897778 150.471111 150.471111 0 0 1 228.408889-0.711111 64.711111 64.711111 0 0 0 48.782222 22.613334 60.728889 60.728889 0 0 0 42.666667-17.92 62.293333 62.293333 0 0 0 3.84-83.911111 274.773333 274.773333 0 0 0-208.782223-97.564445z" p-id="1281"></path><path d="M516.408889 836.977778m-92.871111 0a92.871111 92.871111 0 1 0 185.742222 0 92.871111 92.871111 0 1 0-185.742222 0Z" p-id="1282"></path></svg>