<?xml version="1.0" standalone="no"?><!DOCTYPE svg PUBLIC "-//W3C//DTD SVG 1.1//EN" "http://www.w3.org/Graphics/SVG/1.1/DTD/svg11.dtd"><svg t="1576060252340" class="icon" viewBox="0 0 1024 1024" version="1.1" xmlns="http://www.w3.org/2000/svg" p-id="2927" xmlns:xlink="http://www.w3.org/1999/xlink" width="128" height="128"><defs><style type="text/css"></style></defs><path d="M512 0C229.376 0 0 229.376 0 512s229.376 512 512 512 512-229.376 512-512S794.624 0 512 0z m314.368 408.576l-307.2 358.4c-13.824 16.384-33.792 26.112-55.296 26.624H460.8c-20.48 0-39.936-8.192-54.272-22.528l-153.6-153.6a76.288 76.288 0 0 1 0-108.544 76.288 76.288 0 0 1 108.544 0l94.72 94.72 253.44-295.424a76.9536 76.9536 0 1 1 116.736 100.352z" fill="#17E5AE" p-id="2928" data-spm-anchor-id="a313x.7781069.0.i0" class="selected"></path></svg>