<?xml version="1.0" standalone="no"?><!DOCTYPE svg PUBLIC "-//W3C//DTD SVG 1.1//EN" "http://www.w3.org/Graphics/SVG/1.1/DTD/svg11.dtd"><svg t="1576132098403" class="icon" viewBox="0 0 1024 1024" version="1.1" xmlns="http://www.w3.org/2000/svg" p-id="2897" xmlns:xlink="http://www.w3.org/1999/xlink" width="128" height="128"><defs><style type="text/css"></style></defs><path d="M512 921.6c226.2 0 409.6-183.4 409.6-409.6S738.2 102.4 512 102.4 102.4 285.8 102.4 512 285.8 921.6 512 921.6z m0 102.4C229.2 1024 0 794.8 0 512S229.2 0 512 0s512 229.2 512 512-229.2 512-512 512z m0-204.8c-169.7 0-307.2-137.5-307.2-307.2S342.3 204.8 512 204.8 819.2 342.3 819.2 512 681.7 819.2 512 819.2z" p-id="2898" fill="#0bcbc3"></path></svg>