<?xml version="1.0" standalone="no"?><!DOCTYPE svg PUBLIC "-//W3C//DTD SVG 1.1//EN" "http://www.w3.org/Graphics/SVG/1.1/DTD/svg11.dtd"><svg t="1566803101788" class="icon" viewBox="0 0 1024 1024" version="1.1" xmlns="http://www.w3.org/2000/svg" p-id="4816" xmlns:xlink="http://www.w3.org/1999/xlink" width="200" height="200"><defs><style type="text/css"></style></defs><path d="M510.877285 0c293.958812 13.803283 508.676553 217.273904 511.743949 510.721484 3.067396 293.447579-218.29637 513.78888-506.120389 513.277647-303.161001-1.022465-508.676553-219.830068-516.345043-510.721484C-7.001456 236.189515 233.789153 0.511233 510.877285 0z m2.556164 957.027645c235.16705 14.825749 445.283696-206.538017 445.283696-442.727532 0-237.21198-208.582948-448.862325-448.351092-447.83986-237.723213 1.022465-444.261231 206.538017-444.772464 444.772463-1.022465 244.880471 215.740206 460.109445 447.83986 445.794929z" fill="#0B0015" p-id="4817"></path><path d="M782.85309 488.227244c-6.134793-6.134793-14.825749-9.713422-23.516705-9.713421h-495.895734c-8.690956 0-17.381912 3.578629-23.516705 9.713421-6.134793 6.134793-9.713422 14.825749-9.713422 23.516705 0 8.690956 3.578629 17.381912 9.713422 23.516705 6.134793 6.134793 14.825749 9.713422 23.516705 9.713422h495.895734c8.690956 0 17.381912-3.578629 23.516705-9.713422 6.134793-6.134793 9.713422-14.825749 9.713422-23.516705 0-8.690956-3.067396-17.381912-9.713422-23.516705z" fill="#0B0015" p-id="4818"></path></svg>