<?xml version="1.0" standalone="no"?><!DOCTYPE svg PUBLIC "-//W3C//DTD SVG 1.1//EN" "http://www.w3.org/Graphics/SVG/1.1/DTD/svg11.dtd"><svg t="1566379954331" class="icon" viewBox="0 0 1024 1024" version="1.1" xmlns="http://www.w3.org/2000/svg" p-id="959" xmlns:xlink="http://www.w3.org/1999/xlink" width="200" height="200"><defs><style type="text/css"></style></defs><path d="M 789.333 426.667 c -12.8 0 -21.3333 -4.26667 -21.3333 -12.8 c 0 -4.26667 -4.26667 -8.53333 -4.26667 -12.8 c -4.26667 -8.53333 0 -17.0667 8.53333 -25.6 c 25.6 -25.6 25.6 -64 0 -89.6 l -34.1333 -29.8667 c -25.6 -25.6 -64 -25.6 -93.8667 4.26667 c -4.26667 4.26667 -12.8 8.53333 -21.3333 4.26667 c -4.26667 0 -8.53333 -4.26667 -12.8 -4.26667 c -8.53333 -4.26667 -12.8 -12.8 -12.8 -25.6 c 0 -34.1333 -29.8667 -64 -64 -64 h -42.6667 c -34.1333 0 -64 29.8667 -64 68.2667 c 0 8.53333 -4.26667 17.0667 -12.8 17.0667 c -4.26667 0 -8.53333 4.26667 -12.8 4.26667 c -8.53333 4.26667 -17.0667 4.26667 -25.6 -4.26667 c -21.3333 -25.6 -64 -25.6 -89.6 0 l -29.8667 29.8667 c -25.6 25.6 -25.6 64 0 93.8667 c 8.53333 4.26667 8.53333 12.8 4.26667 21.3333 c 0 4.26667 -4.26667 8.53333 -4.26667 12.8 c 0 8.53333 -8.53333 12.8 -21.3333 12.8 c -34.1333 0 -64 29.8667 -64 64 v 42.6667 c 0 34.1333 29.8667 64 68.2667 64 c 8.53333 0 17.0667 4.26667 17.0667 12.8 c 0 4.26667 4.26667 8.53333 4.26667 12.8 c 4.26667 8.53333 0 17.0667 -8.53333 25.6 c -25.6 25.6 -25.6 64 0 89.6 l 34.1333 29.8667 c 25.6 25.6 64 25.6 93.8667 -4.26667 c 4.26667 -4.26667 12.8 -8.53333 21.3333 -4.26667 c 4.26667 0 8.53333 4.26667 12.8 4.26667 c 8.53333 4.26667 12.8 12.8 12.8 21.3333 c 0 34.1333 29.8667 64 64 64 h 42.6667 c 34.1333 0 64 -29.8667 64 -68.2667 c 0 -8.53333 4.26667 -17.0667 12.8 -21.3333 c 4.26667 0 8.53333 -4.26667 12.8 -4.26667 c 8.53333 -4.26667 17.0667 -4.26667 25.6 8.53333 c 25.6 25.6 64 25.6 93.8667 -4.26667 l 29.8667 -29.8667 c 25.6 -25.6 25.6 -64 -4.26667 -93.8667 c -4.26667 -4.26667 -8.53333 -17.0667 -4.26667 -25.6 c 0 -4.26667 4.26667 -8.53333 4.26667 -12.8 c 4.26667 -8.53333 12.8 -12.8 21.3333 -12.8 c 34.1333 0 64 -29.8667 64 -64 v -42.6667 c 0 -21.3333 -29.8667 -51.2 -64 -51.2 Z m 21.3333 106.667 c 0 12.8 -8.53333 21.3333 -25.6 21.3333 c -25.6 0 -51.2 17.0667 -59.7333 38.4 c 0 4.26667 -4.26667 4.26667 -4.26667 8.53333 c -8.53333 25.6 -4.26667 51.2 17.0667 72.5333 c 8.53333 8.53333 8.53333 21.3333 0 29.8667 l -29.8667 29.8667 c -8.53333 8.53333 -17.0667 8.53333 -29.8667 -4.26667 c -17.0667 -17.0667 -46.9333 -25.6 -68.2667 -12.8 c -8.53333 8.53333 -12.8 8.53333 -12.8 8.53333 c -25.6 8.53333 -38.4 34.1333 -38.4 64 c 0 12.8 -8.53333 21.3333 -21.3333 21.3333 h -42.6667 c -12.8 0 -21.3333 -8.53333 -21.3333 -25.6 c 0 -25.6 -17.0667 -51.2 -38.4 -59.7333 l -8.53333 -4.26667 c -8.53333 -4.26667 -17.0667 -4.26667 -25.6 -4.26667 c -17.0667 0 -34.1333 8.53333 -46.9333 21.3333 c -8.53333 8.53333 -17.0667 8.53333 -29.8667 -4.26667 l -29.8667 -29.8667 c -8.53333 -8.53333 -8.53333 -21.3333 4.26667 -29.8667 c 17.0667 -17.0667 25.6 -46.9333 12.8 -68.2667 C 298.667 601.6 298.667 597.333 298.667 597.333 c -12.8 -25.6 -34.1333 -42.6667 -64 -42.6667 c -12.8 0 -21.3333 -8.53333 -21.3333 -21.3333 v -42.6667 c 0 -12.8 8.53333 -21.3333 25.6 -21.3333 c 25.6 0 46.9333 -17.0667 59.7333 -42.6667 c 0 0 0 -4.26667 4.26667 -8.53333 c 8.53333 -25.6 4.26667 -51.2 -17.0667 -72.5333 c -8.53333 -8.53333 -8.53333 -21.3333 0 -29.8667 l 29.8667 -29.8667 c 8.53333 -8.53333 17.0667 -8.53333 29.8667 4.26667 c 21.3333 17.0667 51.2 21.3333 72.5333 8.53333 h 8.53333 c 25.6 -12.8 42.6667 -34.1333 42.6667 -64 c 0 -12.8 8.53333 -21.3333 21.3333 -21.3333 h 42.6667 c 12.8 0 21.3333 8.53333 21.3333 25.6 c 0 25.6 17.0667 46.9333 42.6667 59.7333 c 0 0 4.26667 0 8.53333 4.26667 c 21.3333 8.53333 51.2 8.53333 72.5333 -17.0667 c 8.53333 -8.53333 21.3333 -8.53333 29.8667 0 l 29.8667 29.8667 c 8.53333 8.53333 8.53333 21.3333 -4.26667 29.8667 c -17.0667 17.0667 -25.6 46.9333 -12.8 72.5333 c 4.26667 4.26667 4.26667 8.53333 4.26667 8.53333 c 8.53333 25.6 34.1333 38.4 59.7333 38.4 h 4.26667 c 12.8 0 21.3333 8.53333 21.3333 21.3333 v 46.9333 Z" p-id="960"></path><path d="M 512 362.667 c -81.0667 0 -149.333 68.2667 -149.333 149.333 s 68.2667 149.333 149.333 149.333 s 149.333 -68.2667 149.333 -149.333 s -68.2667 -149.333 -149.333 -149.333 Z m 0 256 c -59.7333 0 -106.667 -46.9333 -106.667 -106.667 s 46.9333 -106.667 106.667 -106.667 s 106.667 46.9333 106.667 106.667 s -46.9333 106.667 -106.667 106.667 Z" p-id="961"></path></svg>