<?xml version="1.0" standalone="no"?><!DOCTYPE svg PUBLIC "-//W3C//DTD SVG 1.1//EN" "http://www.w3.org/Graphics/SVG/1.1/DTD/svg11.dtd"><svg t="1566380061290" class="icon" viewBox="0 0 1024 1024" version="1.1" xmlns="http://www.w3.org/2000/svg" p-id="3568" xmlns:xlink="http://www.w3.org/1999/xlink" width="200" height="200"><defs><style type="text/css"></style></defs><path d="M384.32 184C388.48 117.12 444.16 64 512 64s123.52 53.12 127.68 120c4.8 1.92 9.28 3.84 13.76 5.76a128.256 128.256 0 0 1 175.36 5.44c48 48 49.92 124.8 5.44 175.04 1.92 4.48 3.84 9.28 5.76 13.76 66.88 4.48 120 60.16 120 128s-53.12 123.52-120 127.68c-1.92 4.8-3.84 9.28-5.76 13.76a128.256 128.256 0 0 1-5.44 175.36c-48 48-124.8 49.92-175.04 5.44-4.48 1.92-9.28 3.84-13.76 5.76-4.48 66.88-60.16 120-128 120s-123.52-53.12-127.68-120c-4.8-1.92-9.28-3.84-13.76-5.76a128.256 128.256 0 0 1-175.36-5.44c-48-48-49.92-124.8-5.44-175.04-1.92-4.48-3.84-9.28-5.76-13.76C117.12 635.52 64 579.84 64 512s53.12-123.52 120-127.68c1.92-4.8 3.84-9.28 5.76-13.76A128.256 128.256 0 0 1 195.2 195.2c48-48 124.8-49.92 175.04-5.44 4.8-2.24 9.28-4.16 14.08-5.76z m-143.68 146.88c16.32 16.32 19.2 40.32 10.24 59.52-3.52 7.36-6.4 14.72-9.28 22.4-7.36 20.16-26.56 35.2-49.6 35.2-35.2 0-64 28.8-64 64s28.8 64 64 64c23.04 0 42.24 15.04 49.28 34.88 2.88 7.68 5.76 15.04 9.28 22.4 8.96 19.2 6.08 43.2-10.24 59.52-24.96 24.96-24.96 65.6 0 90.56s65.6 24.96 90.56 0c16.32-16.32 40.32-19.2 59.52-10.24 7.36 3.52 14.72 6.4 22.4 9.28 20.16 7.36 35.2 26.56 35.2 49.6 0 35.2 28.8 64 64 64s64-28.8 64-64c0-23.04 15.04-42.24 34.88-49.28 7.68-2.88 15.04-5.76 22.4-9.28 19.2-8.96 43.2-6.08 59.52 10.24 24.96 24.96 65.6 24.96 90.56 0s24.96-65.6 0-90.56c-16.32-16.32-19.2-40.32-10.24-59.52 3.52-7.36 6.4-14.72 9.28-22.4 7.36-20.16 26.56-35.2 49.6-35.2 35.2 0 64-28.8 64-64s-28.8-64-64-64c-23.04 0-42.24-15.04-49.28-34.88-2.88-7.68-5.76-15.04-9.28-22.4-8.96-19.2-6.08-43.2 10.24-59.52 24.96-24.96 24.96-65.6 0-90.56s-65.6-24.96-90.56 0c-16.32 16.32-40.32 19.2-59.52 10.24-7.36-3.52-14.72-6.4-22.4-9.28A53.12 53.12 0 0 1 576 192c0-35.2-28.8-64-64-64s-64 28.8-64 64c0 23.04-15.04 42.24-34.88 49.28-7.68 2.88-15.04 5.76-22.4 9.28-19.2 8.96-43.2 6.08-59.52-10.24-24.96-24.96-65.6-24.96-90.56 0s-25.28 65.6 0 90.56z" p-id="3569"></path><path d="M512 384c-70.72 0-128 57.28-128 128s57.28 128 128 128 128-57.28 128-128-57.28-128-128-128z m-192 128c0-105.92 86.08-192 192-192s192 86.08 192 192-86.08 192-192 192-192-86.08-192-192z" p-id="3570"></path></svg>