<?xml version="1.0" standalone="no"?><!DOCTYPE svg PUBLIC "-//W3C//DTD SVG 1.1//EN" "http://www.w3.org/Graphics/SVG/1.1/DTD/svg11.dtd"><svg t="1566380053210" class="icon" viewBox="0 0 1024 1024" version="1.1" xmlns="http://www.w3.org/2000/svg" p-id="3450" xmlns:xlink="http://www.w3.org/1999/xlink" width="200" height="200"><defs><style type="text/css"></style></defs><path d="M512 64c-123.84 0-224 100.16-224 224s100.16 224 224 224 224-100.16 224-224-100.16-224-224-224z m-160 224c0-88.32 71.68-160 160-160s160 71.68 160 160-71.68 160-160 160-160-71.68-160-160zM243.2 576c-42.24 0-84.8 21.12-105.28 62.4-16.64 33.92-37.12 84.16-41.6 136-3.2 38.4 12.8 78.08 48 100.16C200.64 909.44 316.16 960 512 960s311.36-50.56 367.36-85.44c35.52-22.08 51.52-61.76 48-100.16-4.48-51.84-24.96-102.08-41.6-136-20.48-41.28-62.72-62.4-104.96-62.4H243.2z m-47.68 90.88c8-16 25.92-26.88 47.68-26.88h537.6c21.76 0 39.68 10.88 47.68 26.88 15.36 31.04 32 72.64 35.2 112.96 1.6 17.92-5.76 32.64-18.24 40.32C800 848.64 696.32 896 512 896s-288-47.36-333.76-75.84c-12.16-7.68-19.52-22.4-18.24-40.32 3.52-40.32 20.16-81.92 35.52-112.96z" p-id="3451"></path></svg>