<?xml version="1.0" standalone="no"?><!DOCTYPE svg PUBLIC "-//W3C//DTD SVG 1.1//EN" "http://www.w3.org/Graphics/SVG/1.1/DTD/svg11.dtd"><svg t="1567419042656" class="icon"  viewBox="0 0 1024 1024" version="1.1" xmlns="http://www.w3.org/2000/svg" p-id="10747" xmlns:xlink="http://www.w3.org/1999/xlink" width="200" height="200"><defs><style type="text/css"></style></defs><path d="M453.632 199.168c32.768-59.392 91.136-59.392 123.392 0l331.776 564.224c32.768 59.392 0 107.008-71.68 107.008h-650.24c-71.68 0-103.936-47.616-71.68-107.008L453.632 199.168z" fill="#b7230b" p-id="10748"></path><path d="M500.224 355.84c-17.408 0-29.184 11.776-29.184 29.184l11.776 245.76c0 17.408 11.776 29.184 29.184 29.184s29.184-11.776 29.184-29.184l11.776-245.76c0-17.408-11.776-29.184-29.184-29.184h-23.552z" fill="#FFFFFF" p-id="10749"></path><path d="M513.536 741.888m-35.328 0a35.328 35.328 0 1 0 70.656 0 35.328 35.328 0 1 0-70.656 0Z" fill="#FFFFFF" p-id="10750"></path></svg>
