<?xml version="1.0" standalone="no"?><!DOCTYPE svg PUBLIC "-//W3C//DTD SVG 1.1//EN" "http://www.w3.org/Graphics/SVG/1.1/DTD/svg11.dtd"><svg t="1567423913468" class="icon" width="12px" viewBox="0 0 1024 1024" version="1.1" xmlns="http://www.w3.org/2000/svg" p-id="12214" xmlns:xlink="http://www.w3.org/1999/xlink" width="200" height="200"><defs><style type="text/css"></style></defs><path d="M522.318769 273.329231a58.919385 58.919385 0 1 0 58.919385-58.604308 57.186462 57.186462 0 0 0-58.919385 58.604308zM391.325538 476.790154a280.339692 280.339692 0 0 0 0 34.422154l51.357539-61.833846a40.014769 40.014769 0 0 1 29.223385-17.565539 13.312 13.312 0 0 1 7.876923 16.462769l-85.07077 281.757539a56.792615 56.792615 0 0 0 53.878154 72.625231 176.443077 176.443077 0 0 0 144.068923-102.4 277.740308 277.740308 0 0 0 0.945231-35.524924l-51.436308 61.912616a41.275077 41.275077 0 0 1-30.168615 17.565538 13.154462 13.154462 0 0 1-7.876923-14.887384l85.622154-283.175385a57.816615 57.816615 0 0 0-53.090462-72.861538 219.293538 219.293538 0 0 0-145.329231 103.502769zM512.393846 0a512 512 0 1 1-512 512 512 512 0 0 1 512-512z" fill="#D55553" p-id="12215"></path></svg>
